<svg xmlns="http://www.w3.org/2000/svg" viewBox="0 0 48 48" width="48" height="48" role="img" aria-label="PayPal"><title>PayPal</title><rect width="48" height="48" rx="11" fill="#fff"/><rect x="0.5" y="0.5" width="47" height="47" rx="10.5" fill="none" stroke="#E5E7EB"/><path fill-rule="evenodd" d="M15.5 8h9.5c5.2 0 8.5 2.8 8.5 7.2 0 5.8-4.2 9.3-10.3 9.3h-3.2l-1.9 9.5h-6.6zm7.3 5.4-1.3 6.2h2.4c2.8 0 4.6-1.4 4.6-3.6 0-1.7-1.2-2.6-3.3-2.6z" fill="#003087"/><path fill-rule="evenodd" d="M20 15.5h9.5c5.2 0 8.5 2.8 8.5 7.2 0 5.8-4.2 9.3-10.3 9.3h-3.2L22.6 41.5H16zm7.3 5.4L26 27.1h2.4c2.8 0 4.6-1.4 4.6-3.6 0-1.7-1.2-2.6-3.3-2.6z" fill="#009CDE"/></svg>
